<svg xmlns="http://www.w3.org/2000/svg" height="800" width="1200" xml:space="preserve" y="0" x="0" id="Layer_1" version="1.1" viewBox="-22.00755 -33.44325 190.7321 200.6595"><style id="style6378" type="text/css">.st0{fill:#fff}.st2{fill:#693}</style><g transform="translate(232.069 -324.327)" id="Outline"><path id="path6382" d="M-87.6 348.3c-2.3-3.8-8.2-5.7-13.5-7.6-10-3.7-10.9-5.1-15.8-7.3-5.6-3-11.2-5.2-16.6-6.5-11.7-2.9-20.8-3-27.7-2-17.6 2.5-35.6 12.3-47.7 25.7-2.7 3.1-5.2 6-7.4 9.4-6.1 9.3-10.5 20.9-11.6 32.2-.6 6.8.7 12.9-1.8 20.2-2.3 6.5-3.5 13-.9 19.6 1.2 3.2 3.1 5.8 7 8.3 5.3 3.3 10.7 3.3 15.9 5.7 1.4.6 8.3 5.1 12 6.6 4.3 1.8 7.4 2.7 9.9 3.3 5.9 1.5 12.3 2.2 19.1 2.2 9.9-.1 20.8-1.9 32.5-7.4 8.8-4.1 18.3-10.4 25.8-18.1 3.8-3.8 6.4-7.6 8.7-11 2.9-4.3 5.3-9 7-13.2 2.3-5.5 3.8-11.1 4.8-16.4 1.6-8.9 1.6-17.2 1.6-23.1 0-5 1.2-9.2.9-13.5 0-2.3-.6-4.4-2.2-7.1z" class="st0"/></g><g transform="translate(232.069 -324.327)" id="Logo"><g id="g6425"><path id="path6385" d="M-89 350.1c-.8-1.5-1.8-2.5-3-3.4-.2-.1-.3-.2-.6-.3-.1-.1-.2-.1-.3-.2-2.3-1.3-5-2-7.7-3-.6-.2-1 .2-.6.6 6.4 7.4 7 13.2-.2 4.5-19.2-23.2-52.5-22.1-54.7-21.9-1.9.1-3.8.3-5.7.6-17.1 2.7-33.6 11.9-45.4 24.8-2.7 3-5.2 6.1-7.4 9.5-5.9 9-9.8 19.4-11 30.1-.8 6.7 1.1 14.8-1.6 21.1-3.9 9.3-2.9 21.4 7.6 25.5 1.3.5 3.1 1.1 4.4 1.5 3.8 1.1 7.7 1.2 11.3 3.1.7.3 1.4.7 2 1.1.7.4 1.3.7 2 1.1 2.7 1.6 5.4 3.2 8.4 4.4.1.1.2.1.4.2s.5.2.7.3c7.9 3.2 16.3 4.6 24.6 4.8 1.3 0 2.6 0 3.9-.1.6 0 1.3-.1 1.9-.1 1.3-.1 2.6-.2 3.8-.3 1.3-.2 2.6-.3 3.8-.6.6-.1 1.3-.2 1.9-.3 7-1.4 13.7-3.7 20.1-7 .8-.4 1.5-.8 2.3-1.2.7-.4 1.5-.9 2.2-1.3 1.5-.9 2.9-1.8 4.3-2.7 2.2-1.5 4.2-3 6.1-4.6 1-.8 1.9-1.7 2.8-2.5 1.8-1.7 3.6-3.5 5.2-5.4 2.4-2.8 4.6-5.8 6.6-8.9 5.2-8.2 8.7-17.5 10.7-27.3.1-.5.2-.9.2-1.3.1-.4.2-.9.2-1.3 1.1-6.7 1.5-13.6 1.1-20.7.1-7 3.3-12.1-.3-18.8zm-91.8-6.9c-13.6 7.8-8.5.3 1.1-4.8 15.2-8 31.7-5.4 31.7-5.4s-16 .6-32.8 10.2" fill="#9c3"/><g id="g6423"><g id="g6421"><path id="path6387" d="M-201.9 433.8c-1.1-1.2-2.7-2.8-3.7.9-1.4 5-6.4 4.8-8.8 4.4-.3-.1-.6-.2-.8-.2-1.3-.3-2.5-.7-3.8-1.3-10.5-4-12.1-15.7-8.2-25 0 0-8.8 19.2 5.9 26.8 4.8 2.5 10.3 2.5 15.1 5.1 1.4.7 2.7 1.5 4 2.3 2.7 1.5 5.4 3.2 8.3 4.4.3.2.7.3 1.1.5 19.4 7.7 41.5 5.7 59.9-3.7 3.2-1.6 6-3.5 8.9-5.2 5.7-3.4 11.1-8.4 11.1-8.4-12.2 7.9-57.4 34.5-89-.6" class="st2"/><path id="path6389" d="M-221.4 424c2.5-1.8 4.2.7 5.4 2.6 1.3 1.9.9 3.4-.5 4.3-1.4.9-3.7-.1-5-2.1-1.3-1.9-1-3.3-.6-4.1z" class="st2"/><g id="g6405"><g id="g6401"><path id="path6391" d="M-130 398.9c-.6-3.8-2.9-5.3-6.5-4.6-.3.1-.7.1-1 .2.1-.3.1-.5-.1-.5-.8.1-1.8.9-2.1 1.2-.2.2-.6.5-1 1-1.8 1.7-2.6 3.8-2.6 6.1 0 4 2.5 6.1 4.9 8 2.4 1.8 4.4 3.3 4.4 5.8 0 2.1-1.3 2.9-2.5 3.2-1.8.3-2.6-.8-2.6-3v-1.6c0-.6-.4-.9-1-.8l-.6.1-1-.7-1.5 1.4c-.2.2-.3.5-.3.7v1.9c0 4.2 2.6 6.7 6.9 6 1.4-.2 2.6-.8 3.7-1.5.1-.1.1-.1.2-.1 1-.7 1.8-1.6 2.7-2.8.1-.2-.2-.5-.2-.6.2-.6.6-1.4.7-2.7l-.2.1v-.7c0-3.8-2.2-5.9-5.1-8.2-2.5-2-4.1-3.3-4.1-5.5 0-1.4.7-2.7 2.3-3 1.5-.3 2.3.6 2.3 3.4v.8c0 .4.3.7.7.6l2.7-.5c.1 0 .3-.1.4-.2.6-.3 1.5-1.2 1.7-1.5.3-.5-.4-.7-.4-1 .2.1-.3-.8-.8-1z" class="st2"/><path id="path6393" d="M-177.3 402.1c-.1 0-.3.1-.6.2-.2-.2-.4-.2-.7-.2l-8.9 1.5-.6-.8-1.1 1c-.2.2-.4.4-.5.6-.1.2-.2.4-.2.6v26.2c0 .6.4.9 1 .8l2.6-.5c.2 0 .3-.1.5-.1.1 0 .1-.1.2-.1.4-.2 1.4-1.4 1.4-1.4s-.6-1.3-.6-1.6c0-.1-.2-.3-.4-.5v-8.5c0-.2.2-.4.4-.5l4.3-.7c.2 0 .3-.1.5-.2.4-.2 1.5-1.4 1.5-1.4s.2-1 .2-1.3c0 0-.6-1.4-.8-1.4-.1 0-.4.2-.7.4-.2-.1-.4-.2-.7-.1l-4.3.7c-.2.1-.4-.1-.4-.3v-6.9c0-.2.2-.4.4-.5l6.2-1.1c.1 0 .3-.1.4-.2.2-.2 1.6-1.5 1.6-1.5s.6-.6.1-1.3c0 .3-.6-.9-.8-.9z" class="st2"/><path id="path6395" d="M-161.3 423.7c-.2 0-.2-.1-.4.1l-2.5-8c-.1-.2-.6-1.3-.4-1.4 2.2-1.5 3.7-2.5 3.7-6.9 0-4.8-1.1-8.2-6.6-7.3l-4.6.8c.2-.4.3-.7.3-.7-.9.1-.6-.6-1.3.1-.3.4-.9.8-1.2 1.1-.3.3-.5.6-.5.9v26.3c0 .6.4.9 1 .8l2.7-.5c.1 0 .3-.1.4-.1.3-.1 1.4-1.3 1.4-1.3s.5-.5.6-.9c0 0-.7-.6-1.3-1v-8.2c0-.2.2-.4.4-.5l.9-.2c.2-.1.4.1.5.3l2.8 9.9c.2.5.7.8 1.3.7l2.5-.5c.3-.1.4-.1.5-.2.5-.3 1.3-1.1 1.3-1.1s.3-.4.3-.5c-.2.1-1.6-1.7-1.8-1.7zm-7-10.6l-1.4.2c-.2.1-.4-.1-.4-.3v-8c0-.2.2-.4.4-.5l1.4-.2c2.1-.3 2.7.5 2.7 4 0 3.3-.6 4.4-2.7 4.8z" class="st2"/><path id="path6397" d="M-145.6 421h-.3c0-.3-.1-.6-.3-.5l-6.4 1.1c-.2.1-.4-.1-.4-.3v-7.7c0-.2.2-.4.4-.5l4.1-.7c.2-.1.4-.1.6-.3.5-.3 1.3-1.2 1.4-1.4.1-.1.2-.5.2-.6.1-.5-.7-.5-1.2-.5v-.3c0-.4-.2-.7-.6-.8h-.3l-4.1.7c-.2.1-.4-.1-.4-.3v-6.8c0-.2.2-.4.4-.5l6.1-1.1c.2-.1.3-.1.5-.2.6-.4 1.4-1.2 1.5-1.5.2-.3-.3-.6-.3-1 0 0-.3-.1-.8-.2v-.4c0-.6-.5-.9-1-.8l-9.1 1.6-.2-.9-1.5 1.4c-.2.2-.3.5-.3.8v26.2c0 .6.5.9 1 .8l10-1.8c.3-.1.5-.1.6-.2.4-.2 1.7-1.4 1.7-1.4s.3-.4.3-.8c-.1.3-1.4-1.1-1.6-1.1z" class="st2"/><path id="path6399" d="M-111.6 415.6s-.5-.5-.8-.7v-23.4c0-.6-.4-.9-1-.8l-1.6.3-.3-.8-1.1 1.1c-.3.3-.6.6-.6 1v10.5c0 .2-.2.4-.4.5l-4.2.7c-.2.1-.4-.1-.4-.3v-10.5c0-.6-.4-.9-1-.8l-1.6.3-.2-.9s-1.2 1.1-1.3 1.2c-.3.2-.5.7-.5 1v26.2c0 .6.5.9 1 .8l2.4-.4c.4-.1.7-.3.9-.5.3-.2.9-.7 1.1-1 .6-.5.3-.6.3-.6.1-.6-.1-1-.3-1.3l-.1-.1c-.2-.5-.3-.9-.4-.9-.1 0-.2.1-.3.1v-7.7c0-.2.2-.4.4-.5l4.2-.7c.2-.1.4.1.4.3v10.8c0 .6.4.9 1 .8l2.7-.5c.6-.1 2.1-1.8 2.1-1.8s-.5-1.1-.4-1.4z" class="st2"/></g><path id="path6403" d="M-116.1 382.7c3.8-7.2 4.3-21.1-1.6-23.5-1.1-.5-2.2-.6-3.2-.5l-.2-.6c-.3.1-1.4.6-2.3 1.3-1 .8-2.1 1.9-2.3 2.4-1.9 2.3-3 5.8-3.7 10-.2 1.6-.9 3.7-1.5 5.4-1.8 5.3-6.4 15.1-7.8 2.9 3.7-5.2 10.8-26.9 3.8-29.6l.1-.9-.6-.3s-1-.1-1.8.3c-.9.5-2.1 1.9-2.6 2.7-.1.1-.1.1-.1.2-1.9 2.9-3.1 8-3.5 13.1-.5 5.8-.6 10.8.5 14.8.5 1.9.3 2.6 0 3.1-2.1 3.2-9.5 10.6-10.5-2.7 3.4-4.7 10.4-27.9 3.4-30.2l.1-.2-2.4-.2-1.3 1.3c-4.9 4.3-6.2 21.1-4.5 29.9 0 .1.3 1.4.3 1.7l-.2-.2c-.5.6-6.6 9.9-12.2 8.4-1.4-.3-2.5-1.4-3-3.6-.3-1.1-.4-2.9-.5-4.1v-2c.2.1.4.1.6.1.4.1.9.1 1.3.1.9.1 1.9 0 2.9-.3s2.3-.9 3.2-1.7l.3-.3c.2-.2 1.1-1 1.5-1.5.4-.5.8-1.5.8-1.5l-.4.1c.1-.2.2-.4.2-.6.1-.2.1-.5.2-.7.1-.1.1-.2.1-.3v-.5c.2-1.7.1-3.4-.5-5.1-.5-1.2-2-3-4.4-2.9l1.1-1c-.9-.2-3.6 1.2-3.6 1.2s-2.6 2.1-3.9 3.8c-2.2 2.7-3.4 5.7-4 8.7-1.2-.1-2.4-.2-3.7-.3l-.5-.1-.1-.1c.1-6 .3-13.9.5-20.4.1-1.8-.8-2.6-1.8-2.9l.2-.3 1-.5c-.9.2-2.5-.5-3-.2-.5.2-1.3 1-1.4 1.3-.1.2-.2.3-.1.4.3 2.9.5 12.7.3 22.4-2.3-.1-4.7.1-6.9.3-.6.1-1.3.2-1.8.3.2-5.7.5-12.3.5-12.3.1-2.3-1.2-3-2.6-3.2l1-.5c-.5-.1-2-1-3 0l-.8.8c-.1.1-.2.2-.2.3.2 2.1.3 9.6.2 16-2.1.8-4 1.7-5.1 2.3-.1.1-.2.1-.4.2h-.5s-.8.6-1.4 1.2c-1 .8-1 2.1-.7 3 .2.7.7 1 .7 1 .2.1.3.1.5 0s1.3-.8 1.8-1.1c.2-.2.5-.3.7-.5.3-.2.6-.3.9-.5 1.1-.6 1.9-1.2 3.3-1.8 0 1-.1 1.9-.1 2.9-.2 4.4-.5 16.8-.5 16.8-.3 6.5 2.8 5.4 5.3 5 .1 0 .2-.1.2-.1.3-.1 1.1-.9 1.4-1.3.2-.2-.3-.9-.5-1.2l-.8-.5-.3.3c-.3-5-.3-13.1-.1-19.5 0-1.3 0-2.7.1-4.2l2.1-.6c2.1-.5 4.3-.9 6.6-1.1-.1 3.4-.2 8.5-.3 11.9-.3 6.1 2.6 4.6 5 4.2.1 0 .2-.1.3-.1.3-.3.7-.6 1.3-1.3.2-.2-.2-.7-.3-1.1l-1.3-.9c-.2-3.6-.2-8.2-.2-12.8l1.4.1c.8.1 1.7.1 2.6.1 0 .4-.1.7-.1 1.1 0 .7 0 1.5.1 2.2.1 1.4.4 2.9.8 4.2.5 1.3 1.1 2.6 2 3.7.5.5 1 1 1.7 1.4 8.4 4.2 15.1-7.4 16.3-9.6l.1.2c3.7 15.2 14.1 2.1 15.2-.6 2.5 6.4 5.3 7.1 7.9 4.8 1-.7 2.3-2.1 2.3-2.1s.3-.4 0-.6h-.2c1.1-1.8 2.2-4.2 3-6.7.7 4.7 1.9 7.8 5.8 8.2 1 .2 2.2 0 3.4-.5.3-.1.7-.3 1-.6l.2-.2c.2-.2.5-.4.7-.6l1.4-1.4s.5-1.2.5-1.3c.7.5.6.5.6.5zm-57.3-3.3c.2-1.3.5-2.6.9-3.9.4-1.3.9-2.7 1.5-3.9.3-.6.7-1.2 1.2-1.7s.9-.9 1.4-1c.2-.1.4-.1.6-.1h.3c.1 0 .1.1.1.1s.1 0 .1.1c.1 0 .1.1.1.1.3.2.6.7.7 1.3.1.6.2 1.2.1 1.8-.1.6-.2 1.3-.3 2-.3 1.3-.9 2.3-1.6 3.3-.3.5-.7.9-1.3 1.3-.5.3-1.1.6-1.8.8-.3.1-.7.1-1 .1-.1 0-.5-.1-.9-.1v-.2zm23.2-25c2.4.6-1 17.4-4 23.1-1.1-10.4 1.3-23.8 4-23.1zm14.9-.3c2.4.6-.9 16.2-4 22.3-1-10.7 1.2-23 4-22.3zm15.9 28.4c-.5.9-.9 1.4-1.3 1.8-.5.4-1.7.9-2.4.2-3.1-3-3-15.5-.1-20.7 1-1.9 2.5-2.5 3.5-2.6 1.1 0 1.8 1.2 2 1.6 2.3 4.3.8 15-1.7 19.7z" class="st2"/></g><path id="path6407" d="M-116.3 357.7c-2.3-1-4.2-.5-6.1.8-3.3 2.2-4.9 6.4-5.6 11.8-.2 1.7-.9 3.7-1.5 5.4-1.8 5.3-6.4 15.1-7.8 2.9 3.9-5.4 11.3-28.4 3-29.8-4.8-.9-7.3 7.4-8 15.5-.5 6-.3 11 .6 15-.7 1-9.2 15.4-10.4.1 3.4-4.8 10.5-28.3 3.2-30.3-7.6-2-10 20.2-7.8 30.7-1 1.6-6.8 11.1-12.1 9.7-1.4-.3-2.5-1.4-3-3.6-.3-1.1-.4-2.9-.5-4.1v-2c.2.1.4.1.6.1.4.1.9.1 1.3.1.9.1 1.9 0 2.9-.3s2.3-.9 3.2-1.7c.8-.7 1.5-1.6 1.9-2.5.2-.5.4-.9.5-1.4.1-.2.1-.5.2-.7.1-.1.1-.2.1-.3v-.3c.2-1.7.1-3.4-.5-5.1-.6-1.4-2.5-3.5-5.4-2.7-2.1.5-4.8 3.1-5.4 3.8-2.2 2.7-3.4 5.7-4 8.7-1.3-.1-2.7-.2-4.1-.3v-.2c.1-6 .3-13.8.5-20.3.2-4.1-4.1-3-5.2-2.6l-.2.2c.3 2.9.5 12.8.3 22.5-2.3-.1-4.7.1-6.9.4-.6.1-1.3.2-1.8.3.2-5.7.5-12.3.5-12.3.2-4.2-4.2-3.1-5.3-2.8-.2.1-.2.2-.2.3.2 2.1.3 9.7.2 16.1-2.1.8-4 1.7-5.1 2.3-.5.3-1.3.7-1.9 1.2-1.3.8-1.3 2.2-1 3.3.2.7.7 1 .7 1 .2.1.3.1.5 0s1.3-.8 1.8-1.1c.2-.2.5-.3.7-.5.3-.2.6-.3.9-.5 1.1-.6 1.9-1.2 3.3-1.8 0 1-.1 1.9-.1 2.9-.2 4.4-.5 16.8-.5 16.8-.3 6.5 2.8 5.4 5.3 5 .1 0 .2-.1.2-.2-.6-4.3-.5-14.3-.3-22 0-1.3 0-2.7.1-4.2l2.1-.6c2.1-.5 4.3-.9 6.6-1.1-.1 3.4-.2 8.5-.3 11.9-.3 6.1 2.6 4.6 5 4.2.2 0 .3-.2.2-.3-.5-3.7-.5-9.9-.5-16h.6c.9.1 2.1.1 3.3.2 0 .4-.1.7-.1 1.1 0 .7 0 1.5.1 2.2.1 1.4.4 2.9.8 4.2.5 1.3 1.1 2.6 2 3.7.5.5 1 1 1.7 1.4 8.5 4.2 15.2-7.7 16.3-9.7l.1.3c3.7 15.2 14.1 2.1 15.2-.6 4.4 11.3 10 5 13.1-4.3.7 4.7 1.8 7.7 5.8 8 1 .2 2.2 0 3.4-.5 7.4-2.5 10.3-24.3 2.8-27.4zm-55.8 20.3c.2-1.3.5-2.6.9-3.9.4-1.3.9-2.7 1.5-3.9.3-.6.7-1.2 1.2-1.7s.9-.9 1.4-1c.2-.1.4-.1.6-.1h.3c.1 0 .1.1.1.1s.1 0 .1.1c.1 0 .1.1.1.1.3.2.6.7.7 1.3.1.6.2 1.2.1 1.8-.1.6-.2 1.3-.3 2-.3 1.3-.9 2.3-1.6 3.3-.3.5-.7.9-1.3 1.3-.5.3-1.1.6-1.8.8-.3.1-.7.1-1 .1-.1 0-.5-.1-.9-.1v-.2zm23.3-25c2.4.6-1 17.4-4 23.1-1.1-10.4 1.3-23.8 4-23.1zm10.9 22c-.9-10.7 1.3-23 4-22.3 2.4.7-.9 16.2-4 22.3zm19.9 6.2c-.5.9-.9 1.4-1.3 1.8-.5.4-1.7.9-2.4.2-3.1-3-3-15.5-.1-20.7 1-1.9 2.5-2.5 3.5-2.6 1.1 0 1.8 1.2 2 1.6 2.3 4.2.8 15-1.7 19.7z" class="st0"/><g id="g6419"><path id="path6409" d="M-177.3 400.9l-10.3 1.8c-.6.1-1 .6-1 1.1V430c0 .6.4.9 1 .8l2.7-.5c.6-.1 1-.6 1-1.1v-11.1c0-.2.2-.4.4-.5l4.3-.7c.6-.1 1-.6 1-1.1v-2.1c0-.6-.4-.9-1-.8l-4.3.7c-.2.1-.4-.1-.4-.3v-6.9c0-.2.2-.4.4-.5l6.2-1.1c.6-.1 1-.6 1-1.1v-2.1c.1-.5-.4-.8-1-.7z" class="st0"/><path id="path6411" d="M-162.9 414.4c-.1-.2.1-.5.2-.6 2.2-1.5 3-3.3 3-7.7 0-4.8-1.1-8.2-6.6-7.3l-6.3 1.1c-.6.1-1 .6-1 1.1v26.2c0 .6.5.9 1 .8l2.7-.5c.6-.1 1-.6 1-1.1V416c0-.2.2-.4.4-.5l.9-.2c.2-.1.4.1.5.3l2.8 9.9c.2.5.7.8 1.3.7l2.6-.5c.5-.1.8-.6.7-1.1zm-4.1-2.7l-1.4.2c-.2.1-.4-.1-.4-.3v-8c0-.2.2-.4.4-.5l1.4-.2c2.1-.3 2.7.5 2.7 4s-.5 4.5-2.7 4.8z" class="st0"/><path id="path6413" d="M-144.8 419.1l-6.4 1.1c-.2.1-.4-.1-.4-.3v-7.7c0-.2.2-.4.4-.5l4.1-.7c.6-.1 1-.6 1-1.1v-2c0-.6-.4-.9-1-.8l-4.1.7c-.2.1-.4-.1-.4-.3v-6.8c0-.2.2-.4.4-.5l6.1-1.1c.6-.1 1-.6 1-1.1v-2.1c0-.6-.5-.9-1-.8l-10.1 1.8c-.6.1-1 .6-1 1.1v26.2c0 .6.5.9 1 .8l10.4-1.8c.6-.1 1-.6 1-1.1v-2.2c-.1-.5-.5-.9-1-.8z" class="st0"/><path id="path6415" d="M-133.2 405.4c-2.5-2-4.1-3.3-4.1-5.5 0-1.4.7-2.7 2.3-3 1.5-.3 2.3.6 2.3 3.4v.8c0 .4.3.7.7.6l2.7-.5c.5-.1.9-.5.9-1v-.9c0-5.3-2.5-7.2-6.6-6.5-4.8.9-6.8 4.4-6.8 8 0 4 2.5 6.1 4.9 8 2.4 1.8 4.4 3.3 4.4 5.8 0 2.1-1.3 2.9-2.5 3.2-1.8.3-2.6-.8-2.6-3v-1.6c0-.6-.4-.9-1-.8l-2.4.4c-.6.1-1 .6-1 1.1v1.9c0 4.2 2.6 6.7 6.9 6 4.1-.7 6.9-4 6.9-8.4.1-3.7-2.1-5.7-5-8z" class="st0"/><path id="path6417" d="M-112 389.3l-2.7.5c-.6.1-1 .6-1 1.1v10.5c0 .2-.2.4-.4.5l-4.2.7c-.2.1-.4-.1-.4-.3v-10.5c0-.6-.4-.9-1-.8l-2.7.5c-.6.1-1 .6-1 1.1v26.2c0 .6.5.9 1 .8l2.7-.5c.6-.1 1-.6 1-1.1v-10.8c0-.2.2-.4.4-.5l4.2-.7c.2-.1.4.1.4.3v10.8c0 .6.4.9 1 .8l2.7-.5c.6-.1 1-.6 1-1.1v-26.2c0-.6-.4-.9-1-.8z" class="st0"/></g></g></g></g></g></svg>